<?xml version="1.0" standalone="no"?>
<!DOCTYPE svg PUBLIC "-//W3C//DTD SVG 20010904//EN"
 "http://www.w3.org/TR/2001/REC-SVG-20010904/DTD/svg10.dtd">
<svg version="1.0" xmlns="http://www.w3.org/2000/svg"
 width="2816.000000pt" height="4427.000000pt" viewBox="0 0 2816.000000 4427.000000"
 preserveAspectRatio="xMidYMid meet">

<g transform="translate(0.000000,4427.000000) scale(0.100000,-0.100000)"
fill="#000000" stroke="none">
<path d="M6664 44260 c-475 -67 -879 -351 -1100 -773 -60 -116 -114 -270 -141
-404 -26 -132 -24 -404 5 -539 66 -305 188 -531 401 -744 171 -171 345 -279
566 -352 l95 -31 2 -1031 3 -1031 -105 -135 c-687 -882 -1200 -1844 -1557
-2920 -46 -140 -86 -256 -87 -258 -2 -2 -53 -16 -112 -32 -335 -88 -634 -237
-906 -450 -101 -79 -292 -268 -374 -370 -195 -241 -346 -513 -444 -797 l-40
-115 0 -2360 0 -2361 26 -116 c32 -144 82 -301 140 -439 333 -796 979 -1310
1804 -1438 140 -22 468 -25 610 -5 126 17 307 55 403 85 l77 24 0 -182 c0
-179 1 -186 39 -342 229 -927 648 -1706 1251 -2327 1022 -1053 2453 -1547
4745 -1637 154 -6 317 -13 363 -16 l82 -6 0 -33 c0 -28 -4 -34 -27 -40 -131
-32 -595 -243 -812 -369 -843 -489 -1518 -1231 -1889 -2076 l-41 -95 -4038 -5
-4038 -5 -110 -23 c-532 -113 -955 -436 -1190 -907 -103 -208 -153 -383 -175
-615 -8 -82 -10 -2265 -7 -7540 3 -6746 5 -7432 19 -7505 78 -390 221 -668
478 -925 125 -126 247 -217 394 -296 l95 -50 -90 -28 c-434 -136 -795 -507
-924 -951 -95 -328 -66 -655 85 -960 72 -146 159 -263 279 -377 153 -146 311
-241 530 -316 l106 -37 12885 0 12885 0 90 28 c477 148 828 545 926 1049 28
143 30 357 5 498 -77 427 -349 796 -722 982 l-104 52 57 22 c32 11 101 43 153
69 512 257 860 766 920 1345 14 137 14 14822 -1 14961 -38 374 -197 726 -451
994 -250 264 -547 429 -913 507 l-110 23 -4161 3 -4161 2 -62 139 c-447 991
-1313 1830 -2348 2276 l-113 49 0 83 0 83 33 0 c63 0 545 30 727 45 1428 118
2500 412 3326 910 1085 656 1765 1682 1989 3001 21 126 25 181 25 355 l0 207
110 -34 c126 -38 303 -76 440 -95 123 -17 459 -17 575 -1 571 82 1063 347
1423 767 272 317 477 736 562 1149 20 97 20 133 20 2446 l0 2348 -21 68 c-36
118 -98 264 -168 400 -324 625 -863 1071 -1526 1262 l-97 27 -88 265 c-134
407 -254 712 -429 1090 -337 727 -820 1482 -1355 2120 l-105 125 -1 923 c0
766 2 922 13 922 28 0 245 117 327 175 106 76 258 227 333 332 153 215 245
468 266 735 35 429 -131 859 -448 1161 -356 338 -861 472 -1341 355 -452 -110
-831 -441 -1001 -877 -65 -166 -90 -289 -96 -481 -4 -139 -2 -184 15 -285 79
-457 351 -830 764 -1050 95 -50 291 -118 391 -135 l67 -12 0 -509 c0 -280 -2
-509 -5 -509 -3 0 -58 48 -123 106 -958 870 -2131 1558 -3372 1979 -783 265
-1540 417 -2420 487 -256 20 -1090 17 -1350 -5 -1285 -110 -2404 -416 -3515
-962 -894 -440 -1676 -986 -2417 -1687 l-148 -140 0 635 0 635 69 21 c286 87
550 275 733 521 365 491 381 1160 40 1669 -72 108 -231 274 -341 356 -156 118
-368 213 -569 256 -109 23 -375 34 -478 19z m386 -641 c229 -57 432 -222 535
-434 66 -135 88 -241 83 -395 -4 -106 -10 -139 -37 -220 -115 -342 -427 -570
-781 -570 -382 0 -712 262 -801 638 -28 116 -23 311 11 417 83 261 276 461
526 544 159 54 305 60 464 20z m13920 0 c279 -70 510 -298 592 -585 29 -103
32 -305 5 -403 -42 -154 -99 -258 -200 -367 -287 -308 -759 -352 -1093 -101
-153 115 -260 278 -310 472 -26 102 -24 284 5 390 65 240 237 447 454 545 176
79 361 96 547 49z m-6620 -1499 c1882 -82 3643 -743 5123 -1923 454 -362 915
-814 1287 -1262 679 -815 1195 -1726 1556 -2742 l43 -122 -37 -6 c-105 -17
-291 -59 -376 -84 -53 -16 -98 -26 -100 -22 -3 3 -22 51 -44 106 -101 253
-276 623 -417 878 -526 957 -1221 1802 -2057 2498 -1588 1325 -3610 2026
-5645 1958 -1969 -65 -3824 -804 -5333 -2125 -185 -162 -542 -516 -715 -709
-664 -740 -1232 -1645 -1575 -2511 -18 -43 -33 -80 -34 -81 -1 -1 -42 9 -91
22 -50 14 -137 34 -194 45 -58 11 -106 22 -108 24 -5 4 110 320 176 486 496
1236 1268 2353 2245 3247 1733 1586 4002 2423 6296 2323z m-20 -1350 c1776
-99 3395 -762 4760 -1948 173 -151 565 -539 711 -707 630 -719 1101 -1484
1450 -2358 l59 -147 0 -4128 0 -4128 -25 -144 c-118 -676 -371 -1256 -761
-1745 -110 -137 -355 -384 -494 -496 -576 -467 -1293 -774 -2255 -964 -577
-114 -1180 -177 -2065 -216 -384 -16 -2021 -22 -2760 -10 -844 14 -1284 33
-1750 77 -1615 150 -2697 567 -3478 1342 -464 461 -812 1035 -1034 1705 -87
264 -148 527 -123 527 3 0 65 -32 138 -72 417 -227 1024 -486 1502 -641 489
-159 1038 -288 1515 -357 118 -17 226 -34 239 -38 16 -5 30 -25 48 -67 101
-240 328 -431 583 -490 106 -25 291 -23 390 3 249 66 448 233 556 466 44 97
63 174 71 287 28 436 -270 810 -702 880 -91 14 -255 7 -340 -16 -95 -25 -233
-96 -319 -165 l-79 -63 -91 7 c-135 10 -378 43 -573 76 -980 170 -1934 539
-2758 1066 l-140 90 -3 3662 -2 3662 40 99 c106 268 301 668 458 942 737 1285
1797 2329 3093 3047 1016 562 2174 896 3334 961 206 12 605 12 805 1z m-8853
-5531 c43 -5 126 -21 186 -35 l107 -26 0 -3343 0 -3343 -97 -31 c-182 -58
-264 -72 -459 -78 -145 -4 -202 -2 -285 12 -298 49 -558 183 -770 394 -58 58
-129 140 -158 181 -122 175 -227 396 -276 585 l-25 97 0 2242 0 2243 26 63
c90 222 250 459 415 614 224 211 526 364 824 417 116 20 390 25 512 8z m17540
-17 c520 -117 948 -475 1164 -974 l39 -89 -2 -2292 -3 -2292 -38 -110 c-182
-527 -515 -876 -977 -1023 -162 -51 -276 -65 -484 -59 -192 6 -306 25 -478 83
l-78 26 0 3343 0 3343 91 22 c170 42 242 49 464 46 166 -3 229 -8 302 -24z
m-7607 -12189 c0 -594 -374 -1142 -898 -1316 -163 -55 -270 -70 -437 -64 -268
10 -491 92 -711 263 -251 195 -431 490 -505 827 -19 88 -38 369 -27 399 5 11
225 13 1292 13 l1286 0 0 -122z m-2880 -655 c209 -574 703 -1002 1294 -1120
160 -32 433 -32 594 0 348 70 641 230 888 483 156 162 275 335 356 522 23 51
44 96 49 101 10 11 273 -118 429 -212 572 -340 1038 -795 1370 -1337 46 -74
150 -263 150 -270 0 -3 -1649 -5 -3665 -5 l-3665 0 35 71 c155 308 396 631
685 919 382 383 808 667 1320 881 63 27 119 47 124 46 4 -2 21 -37 36 -79z
m14145 -2696 c324 -91 565 -342 629 -654 15 -70 16 -625 16 -6013 l0 -5935
-52 26 c-301 151 -467 340 -562 643 -44 140 -59 263 -53 445 6 201 22 266 116
464 89 188 106 232 125 325 20 97 21 281 1 384 -49 254 -197 533 -387 725 -46
46 -86 78 -98 78 -11 0 -20 -4 -20 -9 0 -5 22 -58 49 -118 104 -232 136 -372
128 -563 -6 -146 -22 -210 -83 -339 -101 -214 -244 -353 -409 -396 -232 -60
-475 69 -638 337 -21 34 -49 98 -63 142 -43 137 -32 336 31 579 52 202 108
328 260 587 59 102 121 214 137 250 121 269 127 593 16 909 -56 159 -148 309
-210 342 -40 22 -43 3 -44 -289 -1 -209 -5 -303 -18 -382 -56 -350 -171 -599
-381 -830 -102 -111 -130 -151 -178 -245 -185 -370 -203 -869 -48 -1334 49
-146 98 -245 212 -427 159 -253 197 -366 184 -546 -16 -229 -114 -432 -390
-804 -256 -345 -504 -535 -803 -616 -95 -26 -341 -31 -437 -9 -342 77 -673
312 -938 663 -336 448 -432 981 -296 1653 33 161 84 299 170 460 173 325 242
484 324 756 129 428 191 897 166 1259 -30 431 -125 719 -331 1005 -32 44 -117
154 -190 245 -267 335 -398 563 -510 887 -121 349 -167 674 -157 1098 9 350
50 632 158 1075 63 259 89 383 89 427 0 168 -181 33 -373 -277 -60 -99 -177
-340 -220 -460 -90 -244 -155 -515 -178 -743 -17 -172 -7 -497 21 -672 76
-485 307 -1121 681 -1876 102 -206 172 -361 182 -402 23 -92 22 -266 -2 -382
-62 -290 -217 -563 -442 -780 -238 -230 -490 -344 -794 -361 -531 -30 -1100
338 -1246 806 -31 99 -34 276 -5 360 28 84 84 191 181 345 254 409 346 730
332 1165 -8 263 -62 530 -153 760 -106 271 -246 461 -270 366 -3 -13 5 -106
18 -207 30 -240 32 -645 5 -804 -50 -288 -147 -535 -291 -745 -28 -41 -127
-153 -221 -250 -201 -208 -250 -282 -314 -473 -141 -424 -111 -916 78 -1314
63 -131 114 -208 244 -370 164 -205 212 -307 243 -517 31 -207 5 -416 -86
-688 -182 -549 -476 -813 -952 -860 -463 -45 -1004 172 -1319 528 -159 181
-264 404 -315 671 -22 116 -31 560 -14 705 31 279 93 454 293 833 267 504 375
856 407 1329 23 333 -17 693 -161 1426 -113 575 -173 802 -343 1305 -57 171
-116 362 -130 425 -32 146 -49 345 -41 480 28 473 137 852 383 1338 110 218
132 269 125 290 -18 50 -212 -84 -383 -264 -267 -281 -480 -627 -605 -986 -87
-249 -126 -464 -126 -704 0 -314 34 -465 240 -1071 227 -668 281 -957 268
-1428 -15 -503 -129 -1010 -307 -1370 -194 -391 -435 -565 -783 -565 -316 0
-542 178 -628 495 -18 65 -22 109 -23 235 -1 200 9 234 164 535 209 407 294
669 342 1055 17 140 17 659 0 800 -31 252 -83 486 -132 596 -57 128 -72 89
-64 -174 15 -465 -55 -878 -211 -1263 -85 -209 -298 -607 -534 -999 -212 -352
-235 -424 -236 -720 0 -176 3 -206 27 -306 34 -146 95 -299 160 -404 51 -84
139 -178 339 -365 69 -64 93 -95 122 -155 152 -309 -23 -850 -393 -1218 -384
-382 -881 -482 -1371 -276 -202 85 -423 255 -550 424 -114 152 -179 331 -179
495 0 129 26 217 121 419 164 348 192 449 193 686 1 167 -17 276 -71 438 -49
151 -170 376 -260 487 -57 70 -171 178 -206 196 -73 38 -74 17 -2 -179 98
-271 132 -452 121 -644 -12 -211 -74 -379 -206 -558 -211 -288 -266 -407 -305
-665 -49 -327 44 -845 215 -1190 32 -66 114 -203 180 -305 141 -215 209 -345
246 -467 36 -120 45 -351 19 -505 -71 -426 -344 -840 -676 -1022 -246 -135
-533 -154 -817 -55 -358 126 -710 418 -909 756 -182 310 -273 665 -273 1068 0
334 60 622 178 857 59 116 112 196 249 370 187 237 271 392 337 623 111 390
110 804 -4 1250 -44 174 -91 306 -161 455 -81 169 -165 286 -334 460 -83 85
-171 184 -197 220 -131 186 -227 474 -259 779 -17 160 -7 470 21 644 11 77 41
218 65 315 79 317 169 548 307 785 22 38 37 71 34 74 -20 21 -243 -225 -400
-441 -104 -142 -247 -377 -319 -522 -207 -415 -298 -834 -257 -1174 26 -208
69 -330 189 -534 150 -254 199 -369 296 -691 130 -431 159 -584 159 -835 1
-216 -11 -277 -77 -410 -95 -193 -289 -329 -547 -382 -126 -26 -374 -21 -492
10 -297 79 -553 275 -673 514 -110 220 -102 375 46 858 28 91 86 257 129 370
95 251 109 296 116 385 15 175 -70 446 -174 554 -39 41 -44 44 -58 29 -14 -14
-15 -30 -4 -149 24 -250 -2 -430 -85 -594 -50 -99 -114 -182 -279 -361 -150
-162 -226 -267 -296 -409 -112 -226 -159 -419 -167 -692 -12 -384 59 -666 225
-889 32 -43 114 -147 183 -229 227 -274 347 -448 556 -805 350 -597 435 -818
420 -1098 -15 -303 -198 -580 -522 -792 -171 -111 -421 -213 -640 -260 -126
-28 -423 -38 -576 -21 -492 56 -827 254 -974 575 -104 227 -106 543 -4 871 35
115 91 221 207 398 123 187 161 269 203 432 96 380 42 727 -152 985 -35 46
-120 134 -198 205 -186 168 -245 245 -295 385 -64 177 -54 376 34 660 25 82
25 100 1 100 -47 0 -156 -164 -199 -300 -75 -235 -51 -408 103 -742 73 -158
131 -258 214 -367 102 -134 144 -229 187 -426 24 -113 24 -320 0 -400 -37
-123 -90 -198 -180 -257 -148 -95 -343 -110 -493 -37 -146 70 -233 250 -233
477 0 120 23 200 99 361 85 176 98 229 82 322 -23 125 -95 240 -201 320 -95
72 -102 51 -30 -101 64 -135 84 -214 78 -305 -6 -93 -32 -145 -115 -232 -153
-160 -247 -389 -247 -603 1 -130 16 -174 116 -326 115 -178 186 -351 223 -549
26 -134 17 -326 -18 -418 -86 -222 -293 -359 -567 -374 -359 -20 -639 188
-746 554 -64 222 -33 415 117 717 115 232 198 350 391 564 229 252 319 418
380 697 44 202 33 540 -24 723 -31 102 -55 144 -268 467 -331 503 -563 906
-626 1090 -25 72 -28 93 -28 205 2 189 44 325 169 536 68 115 77 144 46 144
-30 0 -135 -75 -192 -138 -157 -171 -239 -383 -226 -582 13 -193 94 -472 205
-699 25 -52 102 -178 170 -280 178 -265 251 -428 309 -686 34 -156 43 -422 18
-562 -57 -316 -235 -591 -447 -688 -355 -162 -836 67 -924 441 -12 53 -15 100
-11 204 8 202 42 327 151 545 221 442 278 818 181 1203 -31 120 -79 222 -105
222 -22 0 -27 -33 -34 -245 -7 -212 -42 -368 -118 -520 -50 -100 -95 -160
-217 -288 -123 -131 -182 -207 -237 -311 -59 -111 -96 -215 -128 -356 -51
-229 -55 -422 -14 -640 23 -122 49 -192 120 -322 91 -168 373 -740 427 -868
86 -204 103 -272 108 -440 6 -162 -8 -269 -53 -411 -57 -182 -175 -370 -324
-519 -170 -170 -322 -223 -493 -170 -132 41 -263 159 -307 277 -26 69 -26 163
0 268 26 108 116 372 185 539 72 176 80 217 61 326 -30 171 -158 353 -325 464
-120 80 -221 108 -229 65 -2 -9 33 -64 77 -123 145 -195 198 -330 188 -474 -6
-85 -29 -138 -140 -329 -41 -70 -134 -245 -207 -388 -73 -143 -159 -305 -190
-360 -159 -277 -284 -577 -385 -925 l-34 -115 0 6755 c-1 5714 1 6765 13 6820
76 356 372 633 727 679 35 5 5660 8 12499 7 l12435 -1 80 -23z m66 -17638
c160 -47 328 -187 406 -339 71 -137 88 -209 88 -365 0 -114 -4 -147 -23 -210
-76 -242 -255 -431 -471 -494 -50 -15 -1158 -16 -12800 -16 l-12746 0 -77 26
c-133 44 -286 160 -366 276 -184 268 -167 595 45 871 77 99 177 175 312 233
l76 34 12751 0 c11647 0 12755 -1 12805 -16z"/>
<path d="M9545 35119 c-552 -53 -1047 -394 -1294 -894 -69 -139 -110 -258
-143 -411 l-23 -109 -3 -1095 c-4 -1183 -2 -1229 48 -1426 75 -292 210 -525
429 -744 128 -128 238 -211 381 -288 172 -92 399 -161 594 -181 151 -15 8905
-16 9044 0 671 72 1228 547 1403 1193 53 197 52 166 56 1286 5 1091 1 1221
-37 1395 -75 339 -264 660 -518 878 -269 232 -577 363 -927 397 -136 12 -8875
12 -9010 -1z m9110 -432 c239 -59 421 -156 584 -312 183 -174 303 -388 357
-635 18 -80 19 -149 19 -1195 0 -1038 -1 -1115 -18 -1193 -71 -322 -252 -591
-517 -768 -158 -104 -322 -168 -505 -194 -46 -6 -1622 -10 -4520 -10 -4899 0
-4534 -5 -4729 61 -418 140 -735 506 -811 937 -23 130 -23 2195 0 2328 88 512
491 906 1010 989 64 11 962 13 4570 11 4220 -2 4494 -3 4560 -19z"/>
<path d="M10792 34160 c-240 -31 -477 -122 -687 -263 -123 -84 -323 -285 -404
-407 -248 -373 -328 -815 -226 -1240 126 -517 523 -948 1025 -1109 583 -187
1210 -24 1625 421 377 406 508 988 340 1523 -75 242 -195 437 -384 625 -230
229 -480 366 -786 430 -115 24 -385 35 -503 20z m372 -850 c124 -31 228 -92
321 -185 91 -91 144 -175 182 -290 25 -72 27 -94 27 -220 0 -127 -2 -147 -28
-220 -33 -95 -62 -148 -128 -232 -123 -156 -348 -263 -553 -263 -209 0 -432
108 -560 272 -112 143 -160 293 -153 472 9 197 72 340 213 481 91 92 197 153
317 185 101 26 260 26 362 0z"/>
<path d="M17030 34160 c-322 -44 -623 -184 -850 -394 -479 -444 -636 -1116
-400 -1720 165 -421 526 -762 960 -905 380 -125 814 -94 1172 84 574 285 917
894 859 1523 -25 277 -107 509 -262 742 -82 124 -281 323 -407 409 -168 114
-370 199 -571 241 -110 24 -394 35 -501 20z m374 -850 c195 -50 372 -193 462
-375 134 -273 81 -608 -132 -820 -217 -217 -548 -275 -819 -144 -248 121 -405
370 -405 641 0 120 22 214 78 328 86 177 260 319 454 370 101 26 260 26 362 0z"/>
<path d="M12719 28343 c-4 -44 5 -185 16 -248 78 -449 372 -843 780 -1048 109
-54 243 -100 362 -123 132 -27 376 -24 510 4 286 62 504 181 714 391 262 263
395 561 423 949 l6 82 -1405 0 c-773 0 -1405 -3 -1406 -7z"/>
</g>
</svg>
